<svg width="496" height="218" viewBox="0 0 496 218" fill="none" xmlns="http://www.w3.org/2000/svg">
<path d="M30.48 77.4C30.48 80.6 31.08 83.32 32.28 85.56C33.48 87.72 35.56 88.8 38.52 88.8H39.24C40.44 88.8 41.04 89.4 41.04 90.6V94.2C41.04 95.4 40.44 96 39.24 96H2.4C1.2 96 0.6 95.4 0.6 94.2V90.6C0.6 89.4 1.2 88.8 2.4 88.8H3.24C6.28 88.8 8.36 87.72 9.48 85.56C10.68 83.32 11.28 80.6 11.28 77.4V24.6C11.28 21.32 10.64 18.6 9.36 16.44C8.16 14.28 5.92 13.2 2.64 13.2H2.52C1.32 13.2 0.72 12.6 0.72 11.4V7.8C0.72 6.59999 1.32 5.99999 2.52 5.99999H46.56C53.04 5.99999 58.68 7.27999 63.48 9.83999C68.28 12.32 72 15.6 74.64 19.68C77.28 23.68 78.6 27.96 78.6 32.52C78.6 37.64 77.36 42.28 74.88 46.44C72.4 50.52 68.32 53.76 62.64 56.16C56.96 58.56 49.24 59.76 39.48 59.76H30.48V77.4ZM37.44 51.24C45.44 51.24 51.28 49.8 54.96 46.92C58.72 43.96 60.6 39.16 60.6 32.52C60.6 27 58.88 22.4 55.44 18.72C52 15.04 47.28 13.2 41.28 13.2H29.76V51.24H37.44ZM93.6188 74.52C94.9788 77.88 97.1388 80.88 100.099 83.52C103.139 86.16 106.979 87.48 111.619 87.48C114.179 87.48 116.859 86.76 119.659 85.32C122.459 83.88 124.899 81.64 126.979 78.6C127.219 78.2 127.539 78 127.939 78C128.339 78 128.739 78.12 129.139 78.36C129.619 78.6 130.819 79.28 132.739 80.4C133.059 80.64 133.219 80.96 133.219 81.36C133.219 81.92 132.979 82.6 132.499 83.4C130.259 87.56 127.219 90.96 123.379 93.6C119.539 96.24 114.539 97.56 108.379 97.56C101.739 97.56 96.0188 96.08 91.2188 93.12C86.4188 90.16 82.6988 86.24 80.0588 81.36C77.4988 76.48 76.2188 71.16 76.2188 65.4C76.2188 59.88 77.0188 55.16 78.6188 51.24C80.2988 47.24 82.4988 44.04 85.2188 41.64C87.9388 39.16 90.9788 37.36 94.3388 36.24C97.7788 35.04 101.259 34.44 104.779 34.44C108.779 34.44 112.299 35.24 115.339 36.84C118.379 38.36 120.939 40.32 123.019 42.72C125.179 45.12 126.779 47.68 127.819 50.4C128.939 53.04 129.499 55.52 129.499 57.84C129.499 58.48 129.139 58.96 128.419 59.28L93.6188 74.52ZM111.499 57.36C111.499 53.52 110.579 50.36 108.739 47.88C106.899 45.4 104.579 44.16 101.779 44.16C98.4988 44.16 95.8988 45.48 93.9788 48.12C92.0588 50.68 91.0988 53.92 91.0988 57.84C91.0988 59.04 91.1388 60.52 91.2188 62.28C91.3788 64.04 91.6988 65.64 92.1788 67.08L111.499 57.36ZM158.497 48.6C160.657 43.96 163.657 40.44 167.497 38.04C171.337 35.64 175.377 34.44 179.617 34.44C183.377 34.44 186.577 35.48 189.217 37.56C191.857 39.64 193.177 42.72 193.177 46.8C193.177 48.56 193.017 50.12 192.697 51.48C192.377 52.84 191.497 53.84 190.057 54.48L178.777 59.04C178.297 59.2 177.937 59.28 177.697 59.28C176.977 59.28 176.617 58.92 176.617 58.2C176.617 57.96 176.697 57.6 176.857 57.12C177.337 56 177.617 54.92 177.697 53.88C177.857 52.84 177.937 51.92 177.937 51.12C177.937 48.96 177.377 47.4 176.257 46.44C175.217 45.4 173.897 44.88 172.297 44.88C170.457 44.88 168.737 45.44 167.137 46.56C165.537 47.68 164.137 49.04 162.937 50.64C161.737 52.24 160.857 53.8 160.297 55.32V77.4C160.297 80.6 161.017 83.32 162.457 85.56C163.897 87.72 166.097 88.8 169.057 88.8H169.297C170.497 88.8 171.097 89.4 171.097 90.6V94.2C171.097 95.4 170.497 96 169.297 96H134.377C133.177 96 132.577 95.4 132.577 94.2V90.6C132.577 89.4 133.177 88.8 134.377 88.8H134.617C137.577 88.8 139.777 87.72 141.217 85.56C142.657 83.32 143.377 80.6 143.377 77.4V62.28C143.377 60.12 143.217 58.04 142.897 56.04C142.657 54.04 142.057 52.36 141.097 51C140.137 49.56 138.537 48.72 136.297 48.48C135.337 48.4 134.857 47.88 134.857 46.92V42.84C134.857 42.04 135.457 41.52 136.657 41.28C142.337 40.4 147.297 39 151.537 37.08C155.857 35.16 158.777 33.64 160.297 32.52C160.537 32.36 160.737 32.28 160.897 32.28H161.137C161.297 32.28 161.377 32.36 161.377 32.52C161.377 32.6 161.257 33.2 161.017 34.32C160.857 35.44 160.617 36.88 160.297 38.64C160.057 40.32 159.737 42.08 159.337 43.92C159.017 45.68 158.737 47.24 158.497 48.6ZM241.534 54.6C241.054 54.84 240.654 54.96 240.334 54.96C239.774 54.96 239.254 54.68 238.774 54.12C235.174 49.56 231.414 46.36 227.494 44.52C223.574 42.68 220.174 41.76 217.294 41.76C215.214 41.76 213.294 42.2 211.534 43.08C209.774 43.96 208.894 45.56 208.894 47.88C208.894 49.64 209.534 51.12 210.814 52.32C212.174 53.44 213.894 54.36 215.974 55.08C218.054 55.8 220.174 56.44 222.334 57C225.454 57.72 228.574 58.56 231.694 59.52C234.894 60.48 237.814 61.76 240.454 63.36C243.094 64.88 245.214 66.8 246.814 69.12C248.494 71.44 249.334 74.36 249.334 77.88C249.334 81.64 248.294 85 246.214 87.96C244.214 90.92 241.334 93.28 237.574 95.04C233.814 96.72 229.334 97.56 224.134 97.56C221.654 97.56 219.214 97.24 216.814 96.6C214.494 96.04 212.294 95.28 210.214 94.32C209.734 94.08 209.374 93.96 209.134 93.96C208.574 93.96 208.294 94.24 208.294 94.8C208.294 94.96 208.374 95.28 208.534 95.76C208.694 96.24 208.774 96.56 208.774 96.72C208.774 97.36 208.294 97.68 207.334 97.68H203.014C202.134 97.68 201.454 97.28 200.974 96.48L190.654 77.16C190.414 76.68 190.294 76.32 190.294 76.08C190.294 75.52 190.614 75.04 191.254 74.64L194.974 72.48C195.454 72.24 195.814 72.12 196.054 72.12C196.534 72.12 196.974 72.48 197.374 73.2C201.294 79.04 205.574 83.2 210.214 85.68C214.934 88.16 219.734 89.4 224.614 89.4C232.294 89.4 236.134 87.12 236.134 82.56C236.134 80.48 235.174 78.76 233.254 77.4C231.414 76.04 229.094 74.92 226.294 74.04C223.574 73.16 220.814 72.4 218.014 71.76C212.894 70.48 208.814 69.04 205.774 67.44C202.734 65.76 200.454 64 198.934 62.16C197.414 60.24 196.374 58.36 195.814 56.52C195.334 54.6 195.094 52.76 195.094 51C195.094 46.2 196.934 42.24 200.614 39.12C204.294 36 209.294 34.44 215.614 34.44C219.374 34.44 222.694 34.96 225.574 36C228.454 36.96 230.454 37.76 231.574 38.4C231.894 38.56 232.134 38.64 232.294 38.64C232.534 38.64 232.654 38.48 232.654 38.16C232.654 37.92 232.534 37.44 232.294 36.72C232.214 36.32 232.134 36.04 232.054 35.88C232.054 35.64 232.054 35.44 232.054 35.28C232.054 34.48 232.574 34.08 233.614 34.08H236.734C237.774 34.08 238.454 34.52 238.774 35.4L244.774 50.64C245.014 51.12 245.134 51.52 245.134 51.84C245.134 52.4 244.814 52.84 244.174 53.16L241.534 54.6ZM280.812 34.44C285.372 34.44 289.572 35.36 293.412 37.2C297.332 38.96 300.692 41.4 303.492 44.52C306.292 47.56 308.452 51 309.972 54.84C311.572 58.6 312.372 62.52 312.372 66.6C312.372 72.52 310.972 77.84 308.172 82.56C305.372 87.2 301.692 90.88 297.132 93.6C292.572 96.24 287.612 97.56 282.252 97.56C277.692 97.56 273.492 96.68 269.652 94.92C265.812 93.16 262.452 90.8 259.572 87.84C256.772 84.8 254.572 81.36 252.972 77.52C251.452 73.6 250.692 69.52 250.692 65.28C250.692 59.44 252.052 54.2 254.772 49.56C257.492 44.92 261.132 41.24 265.692 38.52C270.252 35.8 275.292 34.44 280.812 34.44ZM285.972 87.84C287.492 87.84 289.172 87.44 291.012 86.64C292.852 85.84 294.452 84.44 295.812 82.44C297.252 80.44 297.972 77.68 297.972 74.16C297.972 71.36 297.412 68.28 296.292 64.92C295.252 61.48 293.772 58.2 291.852 55.08C290.012 51.88 287.812 49.28 285.252 47.28C282.772 45.2 280.052 44.16 277.092 44.16C273.812 44.16 270.972 45.4 268.572 47.88C266.172 50.28 264.972 53.6 264.972 57.84C264.972 60.56 265.492 63.64 266.532 67.08C267.652 70.52 269.132 73.84 270.972 77.04C272.892 80.16 275.132 82.76 277.692 84.84C280.252 86.84 283.012 87.84 285.972 87.84ZM380.707 56.88V77.4C380.707 81.8 381.387 84.8 382.747 86.4C384.187 88 386.067 88.8 388.387 88.8H389.347C390.547 88.8 391.147 89.4 391.147 90.6V94.2C391.147 95.4 390.547 96 389.347 96H357.427C356.227 96 355.627 95.4 355.627 94.2V90.6C355.627 89.4 356.227 88.8 357.427 88.8H358.267C359.947 88.8 361.307 88 362.347 86.4C363.387 84.8 363.907 81.8 363.907 77.4V56.88C363.907 53.04 363.307 50.12 362.107 48.12C360.907 46.04 358.627 45 355.267 45C353.267 45 351.267 45.52 349.267 46.56C347.267 47.52 345.507 48.8 343.987 50.4C342.467 51.92 341.347 53.56 340.627 55.32V77.4C340.627 80.6 341.307 83.32 342.667 85.56C344.107 87.72 345.987 88.8 348.307 88.8H348.547C349.747 88.8 350.347 89.4 350.347 90.6V94.2C350.347 95.4 349.747 96 348.547 96H314.827C313.627 96 313.027 95.4 313.027 94.2V90.6C313.027 89.4 313.627 88.8 314.827 88.8H315.067C318.027 88.8 320.227 87.72 321.667 85.56C323.107 83.32 323.827 80.6 323.827 77.4V62.28C323.827 60.12 323.667 58.04 323.347 56.04C323.107 54.04 322.467 52.36 321.427 51C320.467 49.56 318.867 48.72 316.627 48.48C315.747 48.4 315.307 47.88 315.307 46.92V42.84C315.307 42.04 315.867 41.52 316.987 41.28C322.747 40.4 327.667 39.04 331.747 37.2C335.907 35.36 338.787 33.88 340.387 32.76C340.787 32.44 341.107 32.28 341.347 32.28H341.467C341.627 32.28 341.707 32.36 341.707 32.52C341.707 32.68 341.667 33 341.587 33.48L339.547 48.24C340.667 46.4 342.147 44.44 343.987 42.36C345.827 40.2 348.107 38.36 350.827 36.84C353.547 35.24 356.707 34.44 360.307 34.44C364.627 34.44 368.147 35.08 370.867 36.36C373.587 37.64 375.627 39.36 376.987 41.52C378.427 43.68 379.387 46.08 379.867 48.72C380.427 51.36 380.707 54.08 380.707 56.88ZM448.579 73.8C448.579 76.68 449.019 79.28 449.899 81.6C450.779 83.84 452.699 85.16 455.659 85.56C456.619 85.64 457.099 86.16 457.099 87.12V91.08C457.099 92.2 456.499 92.76 455.299 92.76C451.379 92.76 448.099 93 445.459 93.48C442.899 93.88 440.659 94.44 438.739 95.16C436.899 95.8 435.059 96.52 433.219 97.32C432.899 97.48 432.619 97.56 432.379 97.56H432.019C431.859 97.56 431.779 97.4 431.779 97.08C431.779 96.76 431.859 96 432.019 94.8C432.179 93.52 432.339 92.12 432.499 90.6C432.739 89 432.939 87.64 433.099 86.52C432.699 87.56 431.819 88.96 430.459 90.72C429.179 92.48 427.259 94.08 424.699 95.52C422.219 96.88 418.939 97.56 414.859 97.56C412.139 97.56 409.219 97 406.099 95.88C403.059 94.76 400.179 92.96 397.459 90.48C394.739 88 392.499 84.76 390.739 80.76C389.059 76.68 388.219 71.72 388.219 65.88C388.219 58.44 389.539 52.44 392.179 47.88C394.899 43.24 398.379 39.84 402.619 37.68C406.939 35.52 411.499 34.44 416.299 34.44C420.219 34.44 423.819 35.04 427.099 36.24C430.379 37.44 433.259 39.16 435.739 41.4C437.819 40.52 439.579 39.72 441.019 39C442.539 38.2 443.819 37.4 444.859 36.6C445.259 36.28 445.659 35.96 446.059 35.64C446.539 35.32 447.059 35 447.619 34.68C447.859 34.52 448.059 34.44 448.219 34.44H448.339C448.499 34.44 448.579 34.52 448.579 34.68V73.8ZM431.779 54.96C431.539 53.36 430.939 51.6 429.979 49.68C429.099 47.68 427.739 46 425.899 44.64C424.059 43.2 421.579 42.48 418.459 42.48C414.619 42.48 411.619 43.44 409.459 45.36C407.299 47.2 405.779 49.6 404.899 52.56C404.099 55.52 403.699 58.68 403.699 62.04C403.699 69.72 405.219 75.8 408.259 80.28C411.379 84.76 415.379 87 420.259 87C423.139 87 425.379 86.4 426.979 85.2C428.659 83.92 429.859 82.64 430.579 81.36C431.299 80.08 431.699 79.32 431.779 79.08V54.96ZM493.356 88.8C494.556 88.8 495.156 89.4 495.156 90.6V94.2C495.156 95.4 494.476 96 493.116 96H459.156C457.796 96 457.116 95.4 457.116 94.2V90.6C457.116 89.4 457.716 88.8 458.916 88.8H459.156C462.116 88.8 464.276 87.72 465.636 85.56C467.076 83.32 467.796 80.6 467.796 77.4V32.4C467.796 30.16 467.636 28.04 467.316 26.04C467.076 24.04 466.476 22.36 465.516 21C464.556 19.56 462.956 18.72 460.716 18.48C459.756 18.4 459.276 17.88 459.276 16.92V12.84C459.276 12.36 459.436 12.04 459.756 11.88C460.076 11.72 460.516 11.52 461.076 11.28C466.756 9.19999 471.276 7.28 474.636 5.52C478.076 3.68 480.916 1.92 483.156 0.239995C483.316 0.0799975 483.476 -1.43051e-06 483.636 -1.43051e-06H483.996C484.156 -1.43051e-06 484.236 0.0799975 484.236 0.239995V77.28C484.236 80.48 484.956 83.2 486.396 85.44C487.836 87.68 490.036 88.8 492.996 88.8H493.356ZM30.36 197.4C30.36 201 31.04 203.8 32.4 205.8C33.76 207.8 35.8 208.8 38.52 208.8H39.36C40.56 208.8 41.16 209.4 41.16 210.6V214.2C41.16 215.4 40.56 216 39.36 216H2.4C1.2 216 0.6 215.4 0.6 214.2V210.6C0.6 209.4 1.2 208.8 2.4 208.8H2.64C8.4 208.8 11.28 205 11.28 197.4V144.72C11.28 137.12 8.36 133.32 2.52 133.32H2.4C1.2 133.32 0.6 132.72 0.6 131.52V127.92C0.6 126.64 1.2 126 2.4 126H62.52C63.56 126 64.32 125.8 64.8 125.4L65.52 124.8C65.76 124.56 66.08 124.44 66.48 124.44C67.12 124.44 67.64 124.76 68.04 125.4L77.52 141.72C77.76 142.04 77.88 142.4 77.88 142.8C77.88 143.36 77.56 143.84 76.92 144.24L72.12 146.88C71.56 147.2 71.12 147.36 70.8 147.36C70.24 147.36 69.76 147 69.36 146.28L69 145.68C66.52 141.52 63.44 138.64 59.76 137.04C56.16 135.36 52.04 134.52 47.4 134.52H30.36V163.92H40.92C44.52 163.92 47.32 163.24 49.32 161.88C51.32 160.52 52.32 158.52 52.32 155.88V155.04C52.32 153.84 52.92 153.24 54.12 153.24H57.72C58.92 153.24 59.52 153.84 59.52 155.04V182.28C59.52 183.48 58.92 184.08 57.72 184.08H54.12C52.92 184.08 52.32 183.48 52.32 182.28V181.56C52.32 178.84 51.32 176.84 49.32 175.56C47.4 174.2 44.6 173.52 40.92 173.52H30.36V197.4ZM107.612 208.8C108.812 208.8 109.412 209.4 109.412 210.6V214.2C109.412 215.4 108.732 216 107.372 216H73.4119C72.0519 216 71.3719 215.4 71.3719 214.2V210.6C71.3719 209.4 71.9719 208.8 73.1719 208.8H73.4119C76.3719 208.8 78.5319 207.72 79.8919 205.56C81.3319 203.32 82.0519 200.6 82.0519 197.4V184.68C82.0519 182.84 81.8919 181 81.5719 179.16C81.3319 177.32 80.7319 175.72 79.7719 174.36C78.8119 173 77.2119 172.2 74.9719 171.96C74.0119 171.88 73.5319 171.36 73.5319 170.4V166.32C73.5319 165.84 73.6919 165.52 74.0119 165.36C74.3319 165.12 74.7719 164.92 75.3319 164.76C81.6519 162.68 86.4919 160.56 89.8519 158.4C93.2919 156.16 95.8119 154.2 97.4119 152.52C97.5719 152.36 97.7319 152.28 97.8919 152.28H98.2519C98.4119 152.28 98.4919 152.36 98.4919 152.52V197.28C98.4919 200.48 99.2119 203.2 100.652 205.44C102.092 207.68 104.292 208.8 107.252 208.8H107.612ZM90.4519 127.2C92.5319 127.2 94.5719 128.2 96.5719 130.2C98.5719 132.2 99.5719 134.2 99.5719 136.2C99.5719 138.2 98.5719 140.2 96.5719 142.2C94.5719 144.2 92.5319 145.2 90.4519 145.2C88.5319 145.2 86.5319 144.2 84.4519 142.2C82.4519 140.28 81.4519 138.28 81.4519 136.2C81.4519 134.2 82.4519 132.2 84.4519 130.2C86.4519 128.2 88.4519 127.2 90.4519 127.2ZM178.46 176.88V197.4C178.46 201.8 179.14 204.8 180.5 206.4C181.94 208 183.82 208.8 186.14 208.8H187.1C188.3 208.8 188.9 209.4 188.9 210.6V214.2C188.9 215.4 188.3 216 187.1 216H155.18C153.98 216 153.38 215.4 153.38 214.2V210.6C153.38 209.4 153.98 208.8 155.18 208.8H156.02C157.7 208.8 159.06 208 160.1 206.4C161.14 204.8 161.66 201.8 161.66 197.4V176.88C161.66 173.04 161.06 170.12 159.86 168.12C158.66 166.04 156.38 165 153.02 165C151.02 165 149.02 165.52 147.02 166.56C145.02 167.52 143.26 168.8 141.74 170.4C140.22 171.92 139.1 173.56 138.38 175.32V197.4C138.38 200.6 139.06 203.32 140.42 205.56C141.86 207.72 143.74 208.8 146.06 208.8H146.3C147.5 208.8 148.1 209.4 148.1 210.6V214.2C148.1 215.4 147.5 216 146.3 216H112.58C111.38 216 110.78 215.4 110.78 214.2V210.6C110.78 209.4 111.38 208.8 112.58 208.8H112.82C115.78 208.8 117.98 207.72 119.42 205.56C120.86 203.32 121.58 200.6 121.58 197.4V182.28C121.58 180.12 121.42 178.04 121.1 176.04C120.86 174.04 120.22 172.36 119.18 171C118.22 169.56 116.62 168.72 114.38 168.48C113.5 168.4 113.06 167.88 113.06 166.92V162.84C113.06 162.04 113.62 161.52 114.74 161.28C120.5 160.4 125.42 159.04 129.5 157.2C133.66 155.36 136.54 153.88 138.14 152.76C138.54 152.44 138.86 152.28 139.1 152.28H139.22C139.38 152.28 139.46 152.36 139.46 152.52C139.46 152.68 139.42 153 139.34 153.48L137.3 168.24C138.42 166.4 139.9 164.44 141.74 162.36C143.58 160.2 145.86 158.36 148.58 156.84C151.3 155.24 154.46 154.44 158.06 154.44C162.38 154.44 165.9 155.08 168.62 156.36C171.34 157.64 173.38 159.36 174.74 161.52C176.18 163.68 177.14 166.08 177.62 168.72C178.18 171.36 178.46 174.08 178.46 176.88ZM246.332 193.8C246.332 196.68 246.772 199.28 247.652 201.6C248.532 203.84 250.452 205.16 253.412 205.56C254.372 205.64 254.852 206.16 254.852 207.12V211.08C254.852 212.2 254.252 212.76 253.052 212.76C249.132 212.76 245.852 213 243.212 213.48C240.652 213.88 238.412 214.44 236.492 215.16C234.652 215.8 232.812 216.52 230.972 217.32C230.652 217.48 230.372 217.56 230.132 217.56H229.772C229.612 217.56 229.532 217.4 229.532 217.08C229.532 216.76 229.612 216 229.772 214.8C229.932 213.52 230.092 212.12 230.252 210.6C230.492 209 230.692 207.64 230.852 206.52C230.452 207.56 229.572 208.96 228.212 210.72C226.932 212.48 225.012 214.08 222.452 215.52C219.972 216.88 216.692 217.56 212.612 217.56C209.892 217.56 206.972 217 203.852 215.88C200.812 214.76 197.932 212.96 195.212 210.48C192.492 208 190.252 204.76 188.492 200.76C186.812 196.68 185.972 191.72 185.972 185.88C185.972 178.44 187.292 172.44 189.932 167.88C192.652 163.24 196.132 159.84 200.372 157.68C204.692 155.52 209.252 154.44 214.052 154.44C217.972 154.44 221.572 155.04 224.852 156.24C228.132 157.44 231.012 159.16 233.492 161.4C235.572 160.52 237.332 159.72 238.772 159C240.292 158.2 241.572 157.4 242.612 156.6C243.012 156.28 243.412 155.96 243.812 155.64C244.292 155.32 244.812 155 245.372 154.68C245.612 154.52 245.812 154.44 245.972 154.44H246.092C246.252 154.44 246.332 154.52 246.332 154.68V193.8ZM229.532 174.96C229.292 173.36 228.692 171.6 227.732 169.68C226.852 167.68 225.492 166 223.652 164.64C221.812 163.2 219.332 162.48 216.212 162.48C212.372 162.48 209.372 163.44 207.212 165.36C205.052 167.2 203.532 169.6 202.652 172.56C201.852 175.52 201.452 178.68 201.452 182.04C201.452 189.72 202.972 195.8 206.012 200.28C209.132 204.76 213.132 207 218.012 207C220.892 207 223.132 206.4 224.732 205.2C226.412 203.92 227.612 202.64 228.332 201.36C229.052 200.08 229.452 199.32 229.532 199.08V174.96ZM323.955 176.88V197.4C323.955 201.8 324.635 204.8 325.995 206.4C327.435 208 329.315 208.8 331.635 208.8H332.595C333.795 208.8 334.395 209.4 334.395 210.6V214.2C334.395 215.4 333.795 216 332.595 216H300.675C299.475 216 298.875 215.4 298.875 214.2V210.6C298.875 209.4 299.475 208.8 300.675 208.8H301.515C303.195 208.8 304.555 208 305.595 206.4C306.635 204.8 307.155 201.8 307.155 197.4V176.88C307.155 173.04 306.555 170.12 305.355 168.12C304.155 166.04 301.875 165 298.515 165C296.515 165 294.515 165.52 292.515 166.56C290.515 167.52 288.755 168.8 287.235 170.4C285.715 171.92 284.595 173.56 283.875 175.32V197.4C283.875 200.6 284.555 203.32 285.915 205.56C287.355 207.72 289.235 208.8 291.555 208.8H291.795C292.995 208.8 293.595 209.4 293.595 210.6V214.2C293.595 215.4 292.995 216 291.795 216H258.075C256.875 216 256.275 215.4 256.275 214.2V210.6C256.275 209.4 256.875 208.8 258.075 208.8H258.315C261.275 208.8 263.475 207.72 264.915 205.56C266.355 203.32 267.075 200.6 267.075 197.4V182.28C267.075 180.12 266.915 178.04 266.595 176.04C266.355 174.04 265.715 172.36 264.675 171C263.715 169.56 262.115 168.72 259.875 168.48C258.995 168.4 258.555 167.88 258.555 166.92V162.84C258.555 162.04 259.115 161.52 260.235 161.28C265.995 160.4 270.915 159.04 274.995 157.2C279.155 155.36 282.035 153.88 283.635 152.76C284.035 152.44 284.355 152.28 284.595 152.28H284.715C284.875 152.28 284.955 152.36 284.955 152.52C284.955 152.68 284.915 153 284.835 153.48L282.795 168.24C283.915 166.4 285.395 164.44 287.235 162.36C289.075 160.2 291.355 158.36 294.075 156.84C296.795 155.24 299.955 154.44 303.555 154.44C307.875 154.44 311.395 155.08 314.115 156.36C316.835 157.64 318.875 159.36 320.235 161.52C321.675 163.68 322.635 166.08 323.115 168.72C323.675 171.36 323.955 174.08 323.955 176.88ZM384.507 199.8C385.147 200.28 385.467 200.8 385.467 201.36C385.467 201.52 385.387 201.84 385.227 202.32C382.907 207.44 379.467 211.28 374.907 213.84C370.427 216.32 365.507 217.56 360.147 217.56C355.667 217.56 351.587 216.6 347.907 214.68C344.227 212.68 341.107 210.04 338.547 206.76C335.987 203.48 334.107 199.8 332.907 195.72C331.707 191.64 331.267 187.44 331.587 183.12C332.147 176.48 333.987 171.04 337.107 166.8C340.227 162.56 343.987 159.44 348.387 157.44C352.867 155.44 357.347 154.44 361.827 154.44C367.107 154.44 371.387 155.24 374.667 156.84C377.947 158.44 380.467 160.52 382.227 163.08C383.987 165.64 385.187 168.32 385.827 171.12C385.907 171.44 385.947 171.72 385.947 171.96C385.947 172.6 385.467 173.04 384.507 173.28L370.707 176.88C370.227 177.04 369.867 177.12 369.627 177.12C369.067 177.12 368.787 176.84 368.787 176.28C368.787 175.96 368.787 175.64 368.787 175.32C368.867 175 368.907 174.56 368.907 174C368.907 171.44 368.107 169.16 366.507 167.16C364.907 165.16 362.427 164.16 359.067 164.16C356.027 164.16 353.627 165.12 351.867 167.04C350.107 168.96 348.827 171.44 348.027 174.48C347.307 177.44 346.947 180.56 346.947 183.84C346.947 187.76 347.467 191.48 348.507 195C349.547 198.52 351.227 201.4 353.547 203.64C355.947 205.8 359.187 206.88 363.267 206.88C366.467 206.88 369.427 206.12 372.147 204.6C374.867 203 377.107 200.84 378.867 198.12C379.187 197.56 379.667 197.28 380.307 197.28C380.707 197.28 381.067 197.4 381.387 197.64L384.507 199.8ZM404.916 194.52C406.276 197.88 408.436 200.88 411.396 203.52C414.436 206.16 418.276 207.48 422.916 207.48C425.476 207.48 428.156 206.76 430.956 205.32C433.756 203.88 436.196 201.64 438.276 198.6C438.516 198.2 438.836 198 439.236 198C439.636 198 440.036 198.12 440.436 198.36C440.916 198.6 442.116 199.28 444.036 200.4C444.356 200.64 444.516 200.96 444.516 201.36C444.516 201.92 444.276 202.6 443.796 203.4C441.556 207.56 438.516 210.96 434.676 213.6C430.836 216.24 425.836 217.56 419.676 217.56C413.036 217.56 407.316 216.08 402.516 213.12C397.716 210.16 393.996 206.24 391.356 201.36C388.796 196.48 387.516 191.16 387.516 185.4C387.516 179.88 388.316 175.16 389.916 171.24C391.596 167.24 393.796 164.04 396.516 161.64C399.236 159.16 402.276 157.36 405.636 156.24C409.076 155.04 412.556 154.44 416.076 154.44C420.076 154.44 423.596 155.24 426.636 156.84C429.676 158.36 432.236 160.32 434.316 162.72C436.476 165.12 438.076 167.68 439.116 170.4C440.236 173.04 440.796 175.52 440.796 177.84C440.796 178.48 440.436 178.96 439.716 179.28L404.916 194.52ZM422.796 177.36C422.796 173.52 421.876 170.36 420.036 167.88C418.196 165.4 415.876 164.16 413.076 164.16C409.796 164.16 407.196 165.48 405.276 168.12C403.356 170.68 402.396 173.92 402.396 177.84C402.396 179.04 402.436 180.52 402.516 182.28C402.676 184.04 402.996 185.64 403.476 187.08L422.796 177.36Z" fill="white"/>
</svg>
