<svg width="117" height="152" viewBox="0 0 117 152" fill="none" xmlns="http://www.w3.org/2000/svg">
<path d="M30.48 71.4C30.48 74.6 31.08 77.32 32.28 79.56C33.48 81.72 35.56 82.8 38.52 82.8H39.24C40.44 82.8 41.04 83.4 41.04 84.6V88.2C41.04 89.4 40.44 90 39.24 90H2.4C1.2 90 0.6 89.4 0.6 88.2V84.6C0.6 83.4 1.2 82.8 2.4 82.8H3.24C6.28 82.8 8.36 81.72 9.48 79.56C10.68 77.32 11.28 74.6 11.28 71.4V18.6C11.28 15.32 10.64 12.6 9.36 10.44C8.16 8.27999 5.92 7.19999 2.64 7.19999H2.52C1.32 7.19999 0.72 6.59999 0.72 5.39999V1.8C0.72 0.599995 1.32 -7.15256e-06 2.52 -7.15256e-06H46.56C53.04 -7.15256e-06 58.68 1.27999 63.48 3.83999C68.28 6.31999 72 9.6 74.64 13.68C77.28 17.68 78.6 21.96 78.6 26.52C78.6 31.64 77.36 36.28 74.88 40.44C72.4 44.52 68.32 47.76 62.64 50.16C56.96 52.56 49.24 53.76 39.48 53.76H30.48V71.4ZM37.44 45.24C45.44 45.24 51.28 43.8 54.96 40.92C58.72 37.96 60.6 33.16 60.6 26.52C60.6 21 58.88 16.4 55.44 12.72C52 9.03999 47.28 7.19999 41.28 7.19999H29.76V45.24H37.44ZM68.76 133.4C68.76 137 69.44 139.8 70.8 141.8C72.16 143.8 74.2 144.8 76.92 144.8H77.76C78.96 144.8 79.56 145.4 79.56 146.6V150.2C79.56 151.4 78.96 152 77.76 152H40.8C39.6 152 39 151.4 39 150.2V146.6C39 145.4 39.6 144.8 40.8 144.8H41.04C46.8 144.8 49.68 141 49.68 133.4V80.72C49.68 73.12 46.76 69.32 40.92 69.32H40.8C39.6 69.32 39 68.72 39 67.52V63.92C39 62.64 39.6 62 40.8 62H100.92C101.96 62 102.72 61.8 103.2 61.4L103.92 60.8C104.16 60.56 104.48 60.44 104.88 60.44C105.52 60.44 106.04 60.76 106.44 61.4L115.92 77.72C116.16 78.04 116.28 78.4 116.28 78.8C116.28 79.36 115.96 79.84 115.32 80.24L110.52 82.88C109.96 83.2 109.52 83.36 109.2 83.36C108.64 83.36 108.16 83 107.76 82.28L107.4 81.68C104.92 77.52 101.84 74.64 98.16 73.04C94.56 71.36 90.44 70.52 85.8 70.52H68.76V99.92H79.32C82.92 99.92 85.72 99.24 87.72 97.88C89.72 96.52 90.72 94.52 90.72 91.88V91.04C90.72 89.84 91.32 89.24 92.52 89.24H96.12C97.32 89.24 97.92 89.84 97.92 91.04V118.28C97.92 119.48 97.32 120.08 96.12 120.08H92.52C91.32 120.08 90.72 119.48 90.72 118.28V117.56C90.72 114.84 89.72 112.84 87.72 111.56C85.8 110.2 83 109.52 79.32 109.52H68.76V133.4Z" fill="white"/>
</svg>
